<?xml version="1.0" encoding="UTF-8"?>
<svg width="16px" height="16px" viewBox="0 0 16 16" version="1.1" xmlns="http://www.w3.org/2000/svg" xmlns:xlink="http://www.w3.org/1999/xlink">
    <!-- Generator: Sketch 52.5 (67469) - http://www.bohemiancoding.com/sketch -->
    <title>Path</title>
    <desc>Created with Sketch.</desc>
    <g id="Page-1" stroke="none" stroke-width="1" fill="none" fill-rule="evenodd">
        <g id="Home-Copy-3" transform="translate(-992.000000, -143.000000)" fill="#5AD07B">
            <g id="Group-16" transform="translate(416.000000, 126.000000)">
                <g id="Group-4">
                    <g id="times" transform="translate(576.000000, 17.000000)">
                        <path d="M11.0327273,8 L15.5813636,3.45136364 C16.1395455,2.89318182 16.1395455,1.98818182 15.5813636,1.42954545 L14.5704545,0.418636364 C14.0122727,-0.139545455 13.1072727,-0.139545455 12.5486364,0.418636364 L8,4.96727273 L3.45136364,0.418636364 C2.89318182,-0.139545455 1.98818182,-0.139545455 1.42954545,0.418636364 L0.418636364,1.42954545 C-0.139545455,1.98772727 -0.139545455,2.89272727 0.418636364,3.45136364 L4.96727273,8 L0.418636364,12.5486364 C-0.139545455,13.1068182 -0.139545455,14.0118182 0.418636364,14.5704545 L1.42954545,15.5813636 C1.98772727,16.1395455 2.89318182,16.1395455 3.45136364,15.5813636 L8,11.0327273 L12.5486364,15.5813636 C13.1068182,16.1395455 14.0122727,16.1395455 14.5704545,15.5813636 L15.5813636,14.5704545 C16.1395455,14.0122727 16.1395455,13.1072727 15.5813636,12.5486364 L11.0327273,8 Z" id="Path" transform="translate(8.000000, 8.000000) scale(1, -1) translate(-8.000000, -8.000000) "></path>
                    </g>
                </g>
            </g>
        </g>
    </g>
</svg>