<?xml version="1.0" encoding="UTF-8"?>
<svg width="179px" height="70px" viewBox="0 0 179 70" version="1.1" xmlns="http://www.w3.org/2000/svg" xmlns:xlink="http://www.w3.org/1999/xlink">
    <!-- Generator: Sketch 52.5 (67469) - http://www.bohemiancoding.com/sketch -->
    <title>mdpi/Group</title>
    <desc>Created with Sketch.</desc>
    <g id="Page-1" stroke="none" stroke-width="1" fill="none" fill-rule="evenodd">
        <g id="Desktop-HD" transform="translate(-96.000000, -13.000000)" fill="#FFFFFF">
            <g id="Group-3" transform="translate(69.000000, -21.000000)">
                <g id="Group-9" transform="translate(20.000000, 0.000000)">
                    <g id="Group" transform="translate(101.193756, 71.495271) rotate(-15.000000) translate(-101.193756, -71.495271) translate(9.693756, 21.995271)">
                        <g id="Group-10" transform="translate(0.578114, 0.292288)">
                            <g id="Group-7">
                                <path d="M51.4694306,42.2072009 C51.4694306,42.2072009 48.4453532,45.1671944 44.8934988,45.3519316 C41.3414316,45.5366688 40.7370418,47.2077006 40.7370418,47.2077006 C40.7370418,47.2077006 40.4052658,48.9941932 39.238836,49.5400076 C38.8855658,49.7037519 37.7150926,49.6029862 36.4892878,49.3342775 C35.6124969,49.1411432 34.8229595,48.780066 33.7569775,48.7422788 C32.7227048,48.7044917 31.5373345,49.1705332 30.6435186,49.3342775 C29.4943266,49.5442062 28.7601206,49.4728304 28.7601206,49.4728304 C28.7601206,49.4728304 27.9961208,49.2608025 27.31299,48.5680381 C26.1616699,47.3987357 26.5277088,46.5947091 24.2889127,45.5534631 C24.1141929,45.4715909 20.7987741,45.3561302 17.5659269,43.2316526 C14.7376378,41.371685 12.0202244,37.7252249 10.8623071,34.4860263 C9.43667068,30.5036804 9.63245894,24.5962891 10.5901189,20.8364675 C10.8263417,19.9127816 11.1923806,19.0247835 11.6733387,18.1997641 C11.7139861,18.1300678 11.7552719,18.0607913 11.7969833,17.9915149 C12.8987179,16.1653458 14.6322952,14.8239019 16.6448708,14.0656398 C16.9225922,13.9610953 19.6619253,12.1575985 22.284424,11.3378273 C22.8047525,11.1751326 23.3421062,11.0758364 23.8818008,10.9962734 C24.4406486,10.9137715 25.5806895,10.5720077 25.7592399,9.15813843 C25.7886082,8.93456445 25.9482182,8.74793791 26.1678415,8.68495932 C28.6081719,7.98547716 31.2406728,7.49760305 33.9868159,7.49760305 C36.8434092,7.49760305 39.5786988,7.93908294 42.1005368,8.63898496 C42.3227139,8.70070397 42.4814726,8.89152908 42.5089255,9.11720235 C42.5104152,9.13105764 42.5123305,9.144703 42.5142459,9.15813843 C42.6932219,10.5732673 43.8347525,10.9141913 44.3931747,10.9962734 C44.9318052,11.0756264 45.4685204,11.1749227 45.987785,11.3371975 C48.6060273,12.1548695 51.3296122,13.9510187 51.5998852,14.0549334 C53.80378,14.9024152 55.5754509,16.6158526 56.5162986,18.7564947 C56.6416457,19.0415778 56.7576289,19.3312793 56.8642484,19.6251794 C58.8051059,25.6879179 59.9479135,35.3089465 51.4694306,42.2072009 M37.2471161,51.6162016 C36.4256566,52.8736741 35.4743811,52.770809 34.0229942,53.0584112 C32.5716073,53.3460134 30.6007431,52.3404554 30.6007431,52.3404554 C30.4985927,52.2123989 29.6877739,51.553223 29.9497471,50.9801179 C30.0306162,50.8016786 30.1817136,50.7072107 30.3817582,50.6736221 C30.8220689,50.6001471 31.5009435,50.8079764 32.2098246,50.9738201 C33.2398411,51.2173372 35.4637404,50.7554943 36.3341469,50.5833528 C37.2045534,50.4091121 37.8429934,50.7030121 37.2471161,51.6162016 M67.3663732,24.6340762 L62.5889269,20.6811203 C60.0775168,18.6007277 58.3858637,15.7142092 57.8176521,12.5253935 L57.8050961,12.4567468 C57.5705758,11.1461625 57.550997,9.80072993 57.8121189,8.49476399 C57.9312944,7.89709722 57.9834337,7.17851155 57.8729836,6.3660878 C57.5388666,3.90572438 55.1085385,2.37744404 52.6886381,0.920539421 C51.1778763,0.00944921421 49.1987124,-0.189982974 47.4962058,0.166895678 C46.474489,0.38102287 45.5508792,0.792482963 44.8892426,1.37188595 C44.3440148,1.84947356 43.8858277,2.5943003 43.5214913,3.45080907 C43.3778423,3.789214 43.0115906,3.97982919 42.6461901,3.91076267 C40.1020068,3.42897649 37.0728219,2.98413775 34.0400192,2.98413775 C31.081914,2.98413775 28.1218935,3.40399498 25.6051631,3.86688759 C25.2418907,3.93385482 24.879044,3.74428928 24.7347566,3.40882334 C24.3738252,2.56973865 23.9220225,1.84191613 23.3865842,1.37188595 C22.7223938,0.792482963 21.7989968,0.38102287 20.7774928,0.166895678 C19.0749862,-0.189982974 17.0956094,0.00944921421 15.5848477,0.920539421 C13.1651601,2.37744404 10.7369601,3.90572438 10.400715,6.3660878 C10.3132488,7.00532044 10.3272944,7.58640286 10.3953947,8.09589962 C10.5426615,9.19886458 10.5513869,10.3154749 10.3553858,11.4108824 L10.1559797,12.5253935 C9.58776814,15.7142092 7.8959022,18.6007277 5.38470496,20.6811203 L0.607045801,24.6340762 C-0.0250097756,25.1567985 -0.18461977,26.0510944 0.228238082,26.7564546 L3.3459533,32.0844429 C4.98674404,34.88699 5.57198069,38.1702736 5.00376911,41.35699 L3.92033647,47.41553 C3.77775154,48.215358 4.23764113,49.0025903 5.01228164,49.2796961 L10.8708197,51.3831809 C13.9546976,52.491604 16.5446357,54.6328759 18.1832984,57.4375222 L21.3031417,62.7634113 C21.7138714,63.4687715 22.5800217,63.7794658 23.3546622,63.5002607 L29.2132002,61.396776 C32.2970781,60.2904522 35.6765537,60.2904522 38.760006,61.396776 L44.6189696,63.5002607 C45.3933973,63.7794658 46.2597604,63.4687715 46.6702773,62.7634113 L49.7901206,57.4375222 C51.4289961,54.6328759 54.0187214,52.491604 57.1025993,51.3831809 L62.9613502,49.2796961 C63.7359907,49.0025903 64.1956675,48.215358 64.0530825,47.41553 L62.9698627,41.35699 C62.4014383,38.1702736 62.986675,34.88699 64.6276785,32.0844429 L67.7451809,26.7564546 C68.1582516,26.0510944 67.9986416,25.1567985 67.3663732,24.6340762" id="Fill-1"></path>
                                <path d="M27.4048281,34.0638978 C25.9578077,36.2479948 23.4510577,40.9449551 20.0058724,38.5954279 C16.5628151,36.2438067 17.2267421,32.4556653 19.7207243,28.4979056 C21.1464649,26.2342345 22.0572366,25.8489288 23.5255367,25.6604641 C24.9938368,25.4740934 27.1515995,26.1400022 28.0538593,28.315723 C29.036982,30.6861907 29.4221447,31.0191451 27.4048281,34.0638978" id="Fill-4"></path>
                                <path d="M47.1611422,39.0029898 C43.6672666,41.1798189 41.3708128,36.3495891 40.0519742,34.1144893 C38.209787,31.0011658 38.6535867,30.7389474 39.7316849,28.4310091 C40.4727465,26.8431309 41.8690407,26.1293141 43.1250774,25.979475 C43.5437564,25.9274475 43.9475722,25.9399341 44.305752,26.0044482 C45.7397273,26.2562611 46.6166502,26.6808052 47.9126708,28.9929057 C50.1777237,33.0364802 50.6548084,36.8261607 47.1611422,39.0029898" id="Fill-6"></path>
                                <path d="M37.2510034,44.8183898 C36.1878633,44.9826659 34.3981014,45.6151289 33.7679337,46.898536 C33.6350412,47.2065537 33.3221007,47.2394089 33.1699174,46.939605 C32.4325783,45.7136946 30.6085215,45.1982783 29.5368077,45.1120334 C28.1307193,44.9990935 28.2164564,43.8368401 28.2164564,43.8368401 C28.2164564,43.8101452 28.2400341,42.8635042 31.6095022,42.5205778 C32.0960602,42.471295 32.6554948,42.4343329 33.2920928,42.4158518 C38.4084542,42.2577361 38.4684702,43.4507913 38.4684702,43.4507913 C38.4684702,43.4507913 38.6442313,44.6027774 37.2510034,44.8183898" id="Fill-8"></path>
                                <g id="Group-2" transform="translate(85.116668, 25.367760)">
                                    <path d="M58.9992111,37.6393387 L61.2836347,43.4760676 C58.6649052,45.4032894 55.0989757,46.2843051 51.5330462,46.2843051 C43.2868341,46.2843051 37.9379398,41.0532745 37.9379398,33.2342602 C37.9379398,26.0209443 43.2868341,20.1842153 51.5330462,20.1842153 C57.9962934,20.1842153 63.6794937,24.8095477 63.6794937,31.8576732 C63.6794937,33.784895 63.5123407,34.8861646 63.1780348,35.9874342 L46.5741754,35.9874342 C47.3542225,38.3551639 49.6943637,39.40137 52.4245285,39.40137 C55.3218463,39.40137 57.6619876,38.4652909 58.9992111,37.6393387 Z M51.2544579,27.0671504 C48.4685755,27.0671504 47.0756342,28.278547 46.2955871,30.4810862 L55.3218463,30.4810862 C55.3218463,28.7741183 53.9289051,27.0671504 51.2544579,27.0671504 Z M67.3079357,45.6235434 L67.3079357,7.07910692 L76.2227595,7.07910692 L76.2227595,45.6235434 L67.3079357,45.6235434 Z M82.4060596,45.6235434 L82.4060596,7.07910692 L91.3208835,7.07910692 L91.3208835,45.6235434 L82.4060596,45.6235434 Z" id="eII" transform="translate(64.629412, 26.681706) rotate(15.000000) translate(-64.629412, -26.681706) "></path>
                                    <path d="M9.74180555,9.16999585 L4.87979844,9.18019048 C2.04371171,9.18613716 3.38703522,12.7940475 3.38703522,12.7940475 C3.38703522,12.7940475 10.1656659,31.566883 10.7043916,32.5400765 C11.2421062,33.5142436 11.6467316,33.968986 12.7272897,33.9667203 C13.6383485,33.96481 14.0803016,32.9876173 14.0803016,32.9876173 L19.9114155,20.3004469 C19.9114155,20.3004469 23.740328,30.3027875 24.3445429,31.796519 C24.9497667,33.2902483 25.4195597,33.9401072 26.5677158,33.9376998 C27.7148629,33.9352944 28.2582542,32.6994943 28.2582542,32.6994943 C28.2582542,32.6994943 36.4225046,12.126391 36.8117747,10.7753164 C37.0678969,9.887883 36.3420996,9.11422052 35.1939436,9.11662796 C34.1133854,9.11889367 33.4360041,10.2617195 33.4360041,10.2617195 L28.5088888,21.0352617 C28.5088888,21.0352617 26.4037562,13.163492 25.5367706,10.9281551 C24.8002333,9.02962363 23.6165351,9.1409034 23.6165351,9.1409034 C23.6165351,9.1409034 21.96081,9.18226006 18.9906163,9.150603 C16.5258836,9.12274313 17.9177999,15.9964284 17.9177999,15.9964284 L14.4619532,20.9131754 C14.4619532,20.9131754 12.0763043,11.6256797 11.4951983,10.177556 C11.1248564,9.25452268 10.3229871,9.14934905 9.9446322,9.15402802 C9.81851458,9.15526387 9.74180555,9.16999585 9.74180555,9.16999585 Z" id="Fill-4" transform="translate(19.966164, 21.541676) rotate(15.000000) translate(-19.966164, -21.541676) "></path>
                                    <path d="M8.85075554,53.5811292 L8.85075554,42.5348578 L10.2097226,42.5348578 L10.2097226,47.4536382 C10.7533094,46.9667965 11.6706122,46.563893 12.5879149,46.563893 C14.8641847,46.563893 16.2231518,48.1587194 16.2231518,50.3914764 C16.2231518,52.8760481 14.5414301,54.4540868 11.9763798,54.4540868 C10.7533094,54.4540868 9.58120033,54.1015463 8.85075554,53.5811292 Z M12.2821473,47.8229665 C11.3988188,47.8229665 10.5834385,48.3265958 10.2097226,48.7966499 L10.2097226,52.6745963 C10.8212578,53.0774998 11.3818317,53.1950133 12.0443281,53.1950133 C13.5901531,53.1950133 14.7792493,52.1877545 14.7792493,50.4922022 C14.7792493,48.7966499 13.760024,47.8229665 12.2821473,47.8229665 Z M24.7125526,46.7317694 L21.6548768,54.2862104 C20.533729,56.9890215 19.8202713,57.6437397 18.7330976,57.6437397 C18.1555366,57.6437397 17.6968852,57.4422879 17.2891951,57.1736856 L17.7308594,56.1496391 C17.9856657,56.2671527 18.2744462,56.4014538 18.5802138,56.4014538 C19.2257232,56.4014538 19.7013616,55.8978244 20.2109743,54.6891139 L20.3808452,54.2862104 L16.7116341,46.7317694 L18.3423946,46.7317694 L20.5846902,51.5330363 C20.7545611,51.9191522 20.8904578,52.2884804 21.0433416,52.6745963 C21.1452641,52.3052681 21.2641738,51.9191522 21.4000705,51.5162487 L23.1667276,46.7317694 L24.7125526,46.7317694 Z" id="by" transform="translate(16.781654, 50.089299) rotate(15.000000) translate(-16.781654, -50.089299) "></path>
                                    <path d="M34.1728543,45.5715069 C34.0999603,45.5722366 34.0556232,45.5809838 34.0556232,45.5809838 L31.2454623,45.5868761 C29.6062504,45.5903132 30.3825479,47.733183 30.3825479,47.733183 C30.3825479,47.733183 34.2998535,58.8830493 34.6111954,59.4610705 C34.9219528,60.0396698 35.1558044,60.3097658 35.7803494,60.3084562 C36.3069265,60.3073521 36.5624011,59.7269886 36.5624011,59.7269886 L39.9331167,52.191967 C39.9331167,52.191967 42.1458287,58.1327263 42.4950047,59.0199096 C42.8447639,59.9070917 43.1162747,60.2930743 43.7798902,60.2916829 C44.4429226,60.2902926 44.7570355,59.5563393 44.7570355,59.5563393 C44.7570355,59.5563393 49.4765313,47.3377499 49.7015685,46.5353271 C49.8496328,46.0082676 49.4301599,45.5487465 48.7665444,45.550138 C48.1419994,45.5514475 47.7504457,46.2301767 47.7504457,46.2301767 L44.9022908,52.6286786 C44.9022908,52.6286786 43.6858237,47.9533744 43.1847955,46.6257249 C42.7591529,45.4981166 42.0749909,45.5641688 42.0749909,45.5641688 C42.0749909,45.5641688 41.1180075,45.5886762 39.4012852,45.569775 C37.9767109,45.553146 38.7809844,49.63564 38.7809844,49.63564 L36.783396,52.5556991 C36.783396,52.5556991 35.4048427,47.0395517 35.0690216,46.1794567 C34.8550011,45.6312325 34.3915374,45.5687405 34.1728543,45.5715069" id="Fill-4" transform="translate(39.965082, 52.929298) rotate(15.000000) translate(-39.965082, -52.929298) "></path>
                                    <path d="M54.2273238,50.899844 C54.1544298,50.9005738 54.1100928,50.9093209 54.1100928,50.9093209 L51.2993487,50.9152144 C49.6607199,50.9186503 50.4364343,53.0615214 50.4364343,53.0615214 C50.4364343,53.0615214 54.3543231,64.2113865 54.6656649,64.7894076 C54.9764224,65.3680069 55.2102739,65.6381029 55.8342357,65.6367946 C56.361396,65.6356892 56.6151212,65.0553294 56.6151212,65.0553294 L59.9875862,57.5203041 C59.9875862,57.5203041 62.1991319,63.4610659 62.5488911,64.348248 C62.8980671,65.2354313 63.1707442,65.6214114 63.8343597,65.62002 C64.4979752,65.6186285 64.811505,64.8846764 64.811505,64.8846764 C64.811505,64.8846764 69.5304177,52.6660883 69.7548717,51.8636667 C69.9029361,51.3366071 69.4846295,50.8770836 68.821014,50.8784751 C68.196469,50.8797846 67.8049152,51.5585138 67.8049152,51.5585138 L64.9567604,57.9570157 C64.9567604,57.9570157 63.7397101,53.2817127 63.2386819,51.9540632 C62.8124561,50.8264562 62.1282941,50.8925084 62.1282941,50.8925084 C62.1282941,50.8925084 61.172477,50.9170133 59.4551716,50.8981133 C58.0317636,50.8814819 58.8354539,54.9639771 58.8354539,54.9639771 L56.8372824,57.8840374 C56.8372824,57.8840374 55.4593122,52.3678888 55.1234911,51.5077938 C54.9094707,50.9595696 54.4454237,50.8970789 54.2273238,50.899844" id="Fill-6" transform="translate(60.018813, 58.257636) rotate(15.000000) translate(-60.018813, -58.257636) "></path>
                                    <path d="M71.9085451,55.2713048 C70.5288313,55.2741978 70.5262875,56.2025046 70.5262875,56.2025046 L70.5001098,68.5964518 C70.496939,70.0976645 71.4627902,70.0160211 71.4627902,70.0160211 C71.4628499,69.9877508 73.7924434,70.0105594 74.3446776,70.0099784 C75.1453314,70.0082996 75.0808511,68.7864693 75.0808511,68.7864693 L75.0934403,62.8260434 L79.6460293,62.8164976 C79.6460293,62.8164976 80.6234897,62.7602154 80.6253931,61.8590262 C80.6272953,60.958414 79.4563464,60.9608693 79.4563464,60.9608693 L75.124185,60.9699529 L75.1306423,57.9127177 C75.1319681,57.2850008 75.7944186,57.2830349 75.7944186,57.2830349 L81.4234875,57.2712319 C81.4234875,57.2712319 82.4845731,57.3792031 82.4868799,56.2870449 C82.4891867,55.1948868 81.3449477,55.2515187 81.3449477,55.2515187 L71.9085451,55.2713048 Z" id="Fill-1" transform="translate(76.493493, 62.633913) rotate(15.000000) translate(-76.493493, -62.633913) "></path>
                                </g>
                            </g>
                        </g>
                    </g>
                </g>
            </g>
        </g>
    </g>
</svg>