<?xml version="1.0" encoding="UTF-8"?>
<svg width="240px" height="120px" viewBox="0 0 240 120" version="1.1" xmlns="http://www.w3.org/2000/svg" xmlns:xlink="http://www.w3.org/1999/xlink">
    <!-- Generator: Sketch 52.5 (67469) - http://www.bohemiancoding.com/sketch -->
    <title>logo</title>
    <desc>Created with Sketch.</desc>
    <g id="Page-1" stroke="none" stroke-width="1" fill="none" fill-rule="evenodd">
        <g id="Home-Copy-2" transform="translate(-69.000000, 0.000000)">
            <g id="Group-22" transform="translate(69.000000, 0.000000)">
                <g id="Group-17">
                    <g id="Group-14-Copy">
                        <g id="Group-12-Copy" fill-rule="nonzero">
                            <rect id="Rectangle-Copy-4" fill="#5AD07B" x="0" y="0" width="120" height="120"></rect>
                            <rect id="Rectangle-Copy-26" fill="#FFFFFF" x="120" y="0" width="120" height="120"></rect>
                        </g>
                        <g id="Group-4" transform="translate(26.594595, 33.321081)" fill="#FFFFFF">
                            <g id="Group-3">
                                <g id="Group-2">
                                    <path d="M50.2048145,27.6418631 L52.260855,32.914766 C49.9039305,34.6558188 46.6945015,35.4517287 43.4850725,35.4517287 C36.0632678,35.4517287 31.2491243,30.7260138 31.2491243,23.6623137 C31.2491243,17.1458016 36.0632678,11.8728987 43.4850725,11.8728987 C49.3021626,11.8728987 54.4171901,16.0514256 54.4171901,22.4187045 C54.4171901,24.1597574 54.2667481,25.1546447 53.9658641,26.1495321 L39.0219602,26.1495321 C39.7240228,28.2885398 41.8302106,29.2336828 44.2874297,29.2336828 C46.8950908,29.2336828 49.0012786,28.3880286 50.2048145,27.6418631 Z M43.2343358,18.0909446 C40.7269694,18.0909446 39.4732862,19.1853207 38.7712236,21.1750954 L46.8950908,21.1750954 C46.8950908,19.63302 45.6414076,18.0909446 43.2343358,18.0909446 Z M57.682882,34.8547963 L57.682882,0.0337394111 L65.7064545,0.0337394111 L65.7064545,34.8547963 L57.682882,34.8547963 Z" id="eII"></path>
                                    <path d="M6.00538649,12.4232897 L1.62699552,12.4232897 C-0.926990173,12.4232897 0.289582874,15.6833901 0.289582874,15.6833901 C0.289582874,15.6833901 6.42968792,32.6460861 6.91668057,33.5257957 C7.40276464,34.4063824 7.76800913,34.8177322 8.74108585,34.8177322 C9.56152309,34.8177322 9.9576589,33.9362684 9.9576589,33.9362684 L15.1846527,22.4921496 C15.1846527,22.4921496 18.6517496,31.5304424 19.1987078,32.880266 C19.7465745,34.2300897 20.1708759,34.8177322 21.2048268,34.8177322 C22.237869,34.8177322 22.7248616,33.7029655 22.7248616,33.7029655 C22.7248616,33.7029655 30.0379284,15.1431098 30.3859101,13.9239708 C30.6148694,13.1231982 29.9597916,12.4232897 28.9258408,12.4232897 C27.952764,12.4232897 27.3449318,13.4538568 27.3449318,13.4538568 L22.928381,23.1718853 C22.928381,23.1718853 21.0176617,16.0605338 20.2326586,14.0406222 C19.5657694,12.3250569 18.5000187,12.4232897 18.5000187,12.4232897 C18.5000187,12.4232897 17.009058,12.4574957 14.3342327,12.4232897 C12.1146002,12.393469 13.3811445,18.6023069 13.3811445,18.6023069 L10.2783835,23.0350611 C10.2783835,23.0350611 8.11235654,14.6449292 7.58629545,13.3363283 C7.25103373,12.5022267 6.52872187,12.4057481 6.18800873,12.4092564 C6.07443769,12.4101335 6.00538649,12.4232897 6.00538649,12.4232897 Z" id="Fill-4"></path>
                                </g>
                                <g id="Group-18" transform="translate(11.915676, 39.567568)">
                                    <path d="M0.0517154549,10.3561946 L0.0517154549,2.27779025 L1.04184854,2.27779025 L1.04184854,5.87501284 C1.43790177,5.51897375 2.1062416,5.2243207 2.77458143,5.2243207 C4.43305435,5.2243207 5.42318743,6.39065567 5.42318743,8.02352463 C5.42318743,9.84055174 4.19789774,10.9946095 2.32902155,10.9946095 C1.43790177,10.9946095 0.583911987,10.7367881 0.0517154549,10.3561946 Z M2.55180149,6.14511147 C1.90821499,6.14511147 1.31413514,6.51342777 1.04184854,6.85718966 L1.04184854,9.69322521 C1.48740843,9.98787826 1.89583832,10.0738187 2.3785282,10.0738187 C3.50480458,10.0738187 4.37117103,9.33718612 4.37117103,8.09718789 C4.37117103,6.85718966 3.62857122,6.14511147 2.55180149,6.14511147 Z M11.6085005,5.3470928 L9.38070107,10.8718374 C8.56384127,12.8484682 8.04402141,13.3272794 7.25191494,13.3272794 C6.83110838,13.3272794 6.49693846,13.1799529 6.19989854,12.9835175 L6.52169179,12.2346077 C6.70734174,12.3205482 6.91774502,12.4187659 7.14052497,12.4187659 C7.61083818,12.4187659 7.95738476,12.0504496 8.32868467,11.1664904 L8.4524513,10.8718374 L5.77909198,5.3470928 L6.96725168,5.3470928 L8.60097126,8.85837492 C8.7247379,9.14075076 8.82375121,9.41084938 8.93514118,9.69322521 C9.00940116,9.42312659 9.09603781,9.14075076 9.19505111,8.84609771 L10.4822241,5.3470928 L11.6085005,5.3470928 Z" id="by"></path>
                                    <path d="M18.4520055,0.0705491003 C18.3988666,0.0709707958 18.3665581,0.077296228 18.3665581,0.077296228 L16.3179458,0.077296228 C15.1229574,0.077296228 15.6921817,1.64473833 15.6921817,1.64473833 C15.6921817,1.64473833 18.5650851,9.80032893 18.7929449,10.2232895 C19.0203795,10.6466718 19.1912744,10.8444469 19.6465688,10.8444469 C20.0304444,10.8444469 20.215793,10.420643 20.215793,10.420643 L22.6614594,4.91836035 C22.6614594,4.91836035 24.2836849,9.26393228 24.539602,9.91292162 C24.7959442,10.561911 24.9944713,10.8444469 25.4782481,10.8444469 C25.9615999,10.8444469 26.1894597,10.308472 26.1894597,10.308472 C26.1894597,10.308472 29.611182,1.38497391 29.7739997,0.798817196 C29.8811278,0.413809222 29.5746224,0.077296228 29.0908456,0.077296228 C28.6355512,0.077296228 28.3511516,0.572788418 28.3511516,0.572788418 L26.2846846,5.24517434 C26.2846846,5.24517434 25.3906752,1.82606739 25.0233789,0.854902694 C24.711347,0.0300663341 24.2126912,0.077296228 24.2126912,0.077296228 C24.2126912,0.077296228 23.5150833,0.0937423517 22.2635551,0.077296228 C21.2250077,0.0629585816 21.8176131,3.04814089 21.8176131,3.04814089 L20.3658574,5.17938985 C20.3658574,5.17938985 19.3523916,1.14545088 19.1062521,0.516281223 C18.9493859,0.115248821 18.6114223,0.0688623184 18.4520055,0.0705491003" id="Fill-4"></path>
                                    <path d="M33.5789601,0.0705491003 C33.5258211,0.0709707958 33.4935127,0.077296228 33.4935127,0.077296228 L31.4444753,0.077296228 C30.249912,0.077296228 30.8187112,1.64473833 30.8187112,1.64473833 C30.8187112,1.64473833 33.6920397,9.80032893 33.9198995,10.2232895 C34.1473341,10.6466718 34.318229,10.8444469 34.7730983,10.8444469 C35.157399,10.8444469 35.3414723,10.420643 35.3414723,10.420643 L37.788414,4.91836035 C37.788414,4.91836035 39.4097892,9.26393228 39.6661315,9.91292162 C39.9220486,10.561911 40.1214259,10.8444469 40.6052027,10.8444469 C41.0889796,10.8444469 41.3164143,10.308472 41.3164143,10.308472 C41.3164143,10.308472 44.7377115,1.38497391 44.9001041,0.798817196 C45.0072322,0.413809222 44.701577,0.077296228 44.2178002,0.077296228 C43.7625058,0.077296228 43.4781062,0.572788418 43.4781062,0.572788418 L41.4116392,5.24517434 C41.4116392,5.24517434 40.5172047,1.82606739 40.1499083,0.854902694 C39.8374514,0.0300663341 39.3387956,0.077296228 39.3387956,0.077296228 C39.3387956,0.077296228 38.6420379,0.0937423517 37.3900846,0.077296228 C36.3523874,0.0629585816 36.9445677,3.04814089 36.9445677,3.04814089 L35.4923869,5.17938985 C35.4923869,5.17938985 34.4793462,1.14545088 34.2332067,0.516281223 C34.0763405,0.115248821 33.7379518,0.0688623184 33.5789601,0.0705491003" id="Fill-6"></path>
                                    <path d="M46.8850772,0.0681032665 C45.8792634,0.0681032665 45.8788383,0.746611295 45.8788383,0.746611295 L45.8788383,9.80547361 C45.8788383,10.9027253 46.5828229,10.8445313 46.5828229,10.8445313 C46.5828229,10.8238682 48.2811433,10.8441096 48.6837239,10.8445313 C49.2674019,10.8445313 49.2185141,9.95138025 49.2185141,9.95138025 L49.2185141,5.59484424 L52.5373595,5.59484424 C52.5373595,5.59484424 53.2498463,5.55520486 53.2498463,4.89651652 C53.2498463,4.23824988 52.3962225,4.23824988 52.3962225,4.23824988 L49.2380692,4.23824988 L49.2380692,2.00368552 C49.2380692,1.54488084 49.7209959,1.54445914 49.7209959,1.54445914 L53.8245971,1.54445914 C53.8245971,1.54445914 54.5983,1.62500298 54.5983,0.826733436 C54.5983,0.0284638913 53.7642312,0.0681032665 53.7642312,0.0681032665 L46.8850772,0.0681032665 Z" id="Fill-1"></path>
                                </g>
                            </g>
                        </g>
                    </g>
                </g>
                <g id="WWF-logo" transform="translate(150.000000, 26.000000)" fill="#5AD07B" fill-rule="nonzero">
                    <path d="M28.0926414,0.00173411279 C26.781247,0.0320479715 25.3994031,0.469723349 24.4040997,1.3338895 C22.6347999,2.87010133 20.8687288,4.46560806 20.9298739,6.55518652 C20.9910048,8.64476544 22.1471427,9.81525949 22.1471427,9.81525949 C22.1471427,9.81525949 22.940426,10.426842 22.1471427,11.0413292 C21.3540973,11.6560501 11.9601868,17.6809811 12.4482011,30.094805 C12.4482011,30.094805 12.6919169,33.3251764 12.325735,36.7666715 C12.0627954,39.2390575 12.9258267,42.2368333 13.4352343,43.7370349 C13.4479608,43.7514964 13.6846183,44.3679862 13.147453,44.0084012 C10.6008708,42.4053784 8.52247123,39.9960897 6.78068423,37.0034984 C5.18259995,34.0798403 4.27023028,30.7016192 4.27023028,27.1073359 C4.27023028,19.4727073 8.38586025,12.8225908 14.4479938,9.39957481 C6.1308967,11.7094594 0,19.5551922 0,28.8724361 C0,29.5847552 0.0342344628,30.2907775 0.10408873,30.9841442 C0.171823724,32.5907157 0.348205767,35.153816 0.795998227,36.1795364 C1.4672167,37.7159878 1.40462929,41.0327286 1.40462929,41.5858555 C1.40462929,42.1387552 1.5883159,60.3269412 12.265731,60.2655868 C12.265731,60.2655868 17.3537164,60.3931827 17.3882894,58.3031304 C17.418887,56.4594417 16.897328,56.2658368 16.414724,55.1972417 C15.9572887,54.1836029 15.6219739,54.1220024 15.8660971,50.8652834 C15.8660971,50.8652834 15.8791395,50.2049716 16.1232621,50.1893347 C16.3673853,50.173672 19.3429688,59.100417 23.1868373,63.7711253 C27.0304744,68.4415843 30.8744873,68.9319815 33.8030138,68.9319815 C33.8030138,68.9319815 39.2929577,68.9320269 39.2929577,66.1665318 C39.2929577,63.4008679 36.7910684,64.506562 36.7910684,55.7190002 C36.7910684,46.930967 41.0002099,47.3639243 41.4886884,49.5146238 C41.9769355,51.6655629 42.4043811,53.384902 41.5499482,59.1616317 C40.6957513,64.9383602 43.016055,65.6151718 45.1515367,65.6151718 C47.2870185,65.6151718 58.513061,65.9817343 60.4653332,33.6570814 C60.4653332,33.6570814 60.7076196,28.4345715 58.9994707,23.9484036 C58.9994707,23.9484036 59.7324426,32.5522737 54.4243105,37.1613835 C49.1161784,41.7704927 46.0650981,41.0949291 46.0650981,41.0949291 C46.0650981,41.0949291 43.505342,40.9083283 42.4684119,42.1988907 C41.4312439,43.4894525 41.6113693,44.4128699 39.4154439,43.7370349 C37.2188171,43.0609603 37.2086217,42.5092983 35.1954308,42.7551879 C33.1822457,43.0010774 31.9707515,43.2450091 31.1774682,41.5858555 C30.3839521,39.9266961 29.497195,38.8575199 27.8501919,38.550276 C26.2027187,38.2430386 18.9636703,34.7745642 19.1591068,24.9956278 C19.3420849,15.9003507 23.4305595,12.7632637 23.4305595,12.7632637 C23.4305595,12.7632637 24.1042108,12.0267698 24.7751911,12.3340131 C25.4464157,12.641257 26.5419578,12.7048023 27.8232497,11.5371882 C29.1045351,10.3695741 29.9587191,9.44494429 32.2771725,8.64592132 C32.2771725,8.64592132 33.8654193,8.39967787 33.8042677,6.80187868 C33.7431356,5.20407234 32.4590225,1.70385124 30.8113101,0.659178667 C30.0904645,0.201755124 29.1124288,-0.022194887 28.0926659,0.00173411279 L28.0926414,0.00173411279 Z M54.0826183,3.46903382 C53.2233804,3.41238479 52.3969851,3.53962721 51.7399311,3.8600448 C49.9877979,4.7147312 48.3293899,8.05394845 48.0930289,9.63516989 C47.8566679,11.2163855 49.4058146,11.6370976 49.4058146,11.6370976 C51.6221983,12.689822 52.3705006,13.701131 53.5156199,15.0044814 C54.6607334,16.3078325 55.7589839,16.3697739 56.4595961,16.1392809 C56.4595961,16.1392809 58.7557666,14.7303813 59.3656011,13.9313642 L59.3435909,13.9275979 C59.3435909,13.9275979 60.6245501,12.8963267 60.9147645,10.8266412 C61.2052169,8.75696217 59.6226384,6.97194331 58.0332506,5.24763983 C57.0397426,4.16992826 55.5147105,3.56332257 54.0826493,3.46894544 L54.0826183,3.46903382 Z M30.812508,22.411497 C29.5923676,22.411497 28.8060065,22.6363437 27.395835,24.3788861 C24.9306184,27.4250185 23.97871,30.52379 26.5410552,32.8590254 C29.1036318,35.1942536 31.6606286,31.5311138 33.0792651,29.857978 C35.0571752,27.5260649 34.7781032,27.2058492 34.229181,25.116504 C33.7258865,23.2005606 32.0328862,22.411497 30.812508,22.411497 Z M46.661457,24.5750105 C45.6009829,24.5656012 44.3637134,25.014416 43.5754337,26.2710392 C42.4293738,28.0981508 42.0320487,28.2704155 43.2239678,31.0926869 C44.0790982,33.1173562 45.4625094,37.4342524 48.6024681,35.9809489 C51.7424261,34.5274117 51.7575309,31.2836957 50.3132564,27.6327952 C49.4868172,25.5446371 48.8038609,25.0928598 47.6399253,24.7242616 C47.3489398,24.6320511 47.0149486,24.5781554 46.661457,24.5750105 Z M35.5248188,37.3809379 C32.71351,37.3148347 32.6261621,38.1444618 32.6261621,38.1444618 C32.6261621,38.1444618 32.4294337,39.1273446 33.5580879,39.3730003 C34.4179279,39.5603785 35.8430476,40.1938746 36.3061261,41.3169595 C36.3971416,41.5893797 36.6539178,41.5938577 36.7959714,41.3465772 C37.448606,40.3170677 38.9704281,39.967896 39.8526078,39.940418 C41.0069,39.9046702 40.9914947,38.9018335 40.9914947,38.9018335 C40.9914947,38.9018335 41.0723968,37.8779262 36.9037344,37.469769 C36.3832412,37.4188 35.9264389,37.3904031 35.5248188,37.3809554 L35.5248188,37.3809379 Z M33.6291215,43.986196 C33.9974225,43.9724943 34.5299228,44.2176169 35.0913091,44.4327127 C35.9078733,44.7451665 37.7748098,44.5973616 38.5055309,44.5461939 C39.2357815,44.4952898 39.7250188,44.8077268 39.1398816,45.5058364 C38.3336636,46.4685414 37.3703685,46.4337118 36.15305,46.5185149 C34.9357251,46.603318 33.6291215,45.400988 33.6291215,45.400988 C33.5599814,45.2825495 32.9674456,44.6462111 33.242142,44.1958858 C33.3279844,44.0554129 33.4616743,43.9925936 33.6291215,43.986196 Z" id="foreground-9-copy"></path>
                </g>
            </g>
        </g>
    </g>
</svg>