<?xml version="1.0" encoding="UTF-8"?>
<svg width="28px" height="28px" viewBox="0 0 28 28" version="1.1" xmlns="http://www.w3.org/2000/svg" xmlns:xlink="http://www.w3.org/1999/xlink">
    <!-- Generator: Sketch 52.5 (67469) - http://www.bohemiancoding.com/sketch -->
    <title>Shape</title>
    <desc>Created with Sketch.</desc>
    <g id="Page-1" stroke="none" stroke-width="1" fill="none" fill-rule="evenodd" opacity="0.402111235">
        <g id="Home-Copy-3" transform="translate(-444.000000, -724.000000)" fill="#5AD07B" fill-rule="nonzero">
            <g id="Group-16" transform="translate(416.000000, 126.000000)">
                <g id="Group-15" transform="translate(28.000000, 596.000000)">
                    <g id="Group-7">
                        <g id="iconmonstr-globe-3" transform="translate(0.000000, 2.000000)">
                            <path d="M14,0 C6.2685,0 0,6.2685 0,14 C0,21.7315 6.2685,28 14,28 C21.7315,28 28,21.7315 28,14 C28,6.2685 21.7315,0 14,0 Z M15.1666667,18.7331667 L15.1666667,15.1666667 L18.6596667,15.1666667 C18.5908333,16.5001667 18.4123333,17.78 18.1276667,18.9921667 C17.1675,18.8521667 16.1746667,18.7728333 15.1666667,18.7331667 Z M17.4498333,21.2555 C16.8676667,22.8071667 16.0976667,24.1686667 15.1666667,25.2875 L15.1666667,21.0641667 C15.9436667,21.0968333 16.7055,21.1586667 17.4498333,21.2555 Z M15.1666667,12.8333333 L15.1666667,9.31583333 C16.1793333,9.27616667 17.1745,9.19566667 18.1393333,9.0545 C18.417,10.2526667 18.5931667,11.5173333 18.6596667,12.8333333 L15.1666667,12.8333333 Z M15.1666667,6.98366667 L15.1666667,2.7125 C16.107,3.843 16.8828333,5.22083333 17.4661667,6.79116667 C16.7171667,6.88916667 15.9495,6.951 15.1666667,6.98366667 Z M18.3201667,3.17216667 C19.7633333,3.75083333 21.0665,4.60483333 22.1585,5.67583333 C21.4095,5.94883333 20.629,6.1915 19.803,6.384 C19.4016667,5.22666667 18.8988333,4.15566667 18.3201667,3.17216667 Z M9.87233333,18.9921667 C9.58766667,17.78 9.408,16.5001667 9.34033333,15.1666667 L12.8333333,15.1666667 L12.8333333,18.7331667 C11.8241667,18.7728333 10.8336667,18.8521667 9.87233333,18.9921667 Z M12.8333333,21.0641667 L12.8333333,25.2875 C11.9023333,24.1686667 11.1323333,22.8071667 10.5501667,21.2555 C11.2945,21.1586667 12.0563333,21.0968333 12.8333333,21.0641667 Z M9.34033333,12.8333333 C9.40683333,11.5173333 9.58183333,10.2526667 9.86066667,9.0545 C10.8255,9.19566667 11.8206667,9.27616667 12.8333333,9.31583333 L12.8333333,12.8333333 L9.34033333,12.8333333 Z M10.535,6.79116667 C11.1183333,5.22083333 11.8941667,3.843 12.8333333,2.7125 L12.8333333,6.98366667 C12.0505,6.951 11.2828333,6.88916667 10.535,6.79116667 Z M8.19583333,6.38283333 C7.36983333,6.19033333 6.58933333,5.94766667 5.8415,5.67466667 C6.93466667,4.60366667 8.23666667,3.74966667 9.67983333,3.171 C9.10116667,4.15566667 8.59833333,5.22666667 8.19583333,6.38283333 Z M7.55533333,8.6205 C7.24733333,9.96333333 7.049,11.3738333 6.98133333,12.8333333 L2.39283333,12.8333333 C2.58533333,10.899 3.255,9.1035 4.27933333,7.56233333 C5.306,7.9835 6.398,8.344 7.55533333,8.6205 Z M7.56583333,19.4261667 C6.41316667,19.7015 5.32583333,20.0585 4.30266667,20.4761667 C3.26433333,18.9268333 2.5865,17.1173333 2.39283333,15.1666667 L6.9825,15.1666667 C7.05016667,16.6425 7.252,18.0693333 7.56583333,19.4261667 Z M8.211,21.6626667 C8.61,22.8013333 9.107,23.8571667 9.6775,24.8266667 C8.25066667,24.255 6.96383333,23.4138333 5.87883333,22.3591667 C6.62083333,22.092 7.39433333,21.8516667 8.211,21.6626667 Z M19.789,21.6626667 C20.6056667,21.8528333 21.378,22.0908333 22.1211667,22.3591667 C21.035,23.4126667 19.7481667,24.255 18.3213333,24.8278333 C18.8918333,23.8571667 19.3888333,22.8013333 19.789,21.6626667 Z M20.4341667,19.4261667 C20.7491667,18.0693333 20.9498333,16.6425 21.0186667,15.1666667 L25.6083333,15.1666667 C25.4135,17.1173333 24.7356667,18.9268333 23.6973333,20.4761667 C22.6741667,20.0585 21.5856667,19.7015 20.4341667,19.4261667 Z M21.0186667,12.8333333 C20.951,11.3738333 20.7515,9.96333333 20.4446667,8.6205 C21.602,8.344 22.6951667,7.9835 23.7218333,7.56233333 C24.745,9.1035 25.4146667,10.899 25.6071667,12.8333333 L21.0186667,12.8333333 Z" id="Shape"></path>
                        </g>
                    </g>
                </g>
            </g>
        </g>
    </g>
</svg>